name D:\PhD\Datasets\SharingData_IBEC_VALDUCE\RM1_Healthy_0001.mot
datacolumns 46
datarows 7
range 2.51000000 2.57000000
endheader
                time	         pelvis_tilt	     pelvis_rotation	           pelvis_tx	           pelvis_ty	           pelvis_tz	       hip_flexion_r	     hip_adduction_r	      hip_rotation_r	        knee_angle_r	       ankle_angle_r	    subtalar_angle_r	         mtp_angle_r	       hip_flexion_l	     hip_adduction_l	      hip_rotation_l	        knee_angle_l	       ankle_angle_l	    subtalar_angle_l	         mtp_angle_l	    lumbar_extension	      lumbar_bending	     lumbar_rotation	          arm_flex_r	           arm_add_r	           arm_rot_r	        elbow_flex_r	           pro_sup_r	        wrist_flex_r	         wrist_dev_r	          arm_flex_l	           arm_add_l	           arm_rot_l	        elbow_flex_l	           pro_sup_l	        wrist_flex_l	         wrist_dev_l	          end_eff_tx	          end_eff_ty	          end_eff_tz	             goal_tx	             goal_ty	             goal_tz	            elbow_tx	            elbow_ty	            elbow_tz	
          2.51000000	          0.00000000	          0.00000000	        303.74416283	        512.32537907	        367.72691529	          0.00000000	          0.00000000	          0.00000000	          0.00000000	          0.00000000	          0.00000000	          0.00000000	          0.00000000	          0.00000000	          0.00000000	          0.00000000	          0.00000000	          0.00000000	          0.00000000	          8.47513294	         -0.95623726	         -9.76334190	         11.64531136	        -29.43280602	         12.85884857	         62.60764694	         96.59722900	          0.00000000	          0.00000000	          0.00000000	          0.00000000	          0.00000000	          0.00000000	          0.00000000	          0.00000000	          0.00000000	        632.80042249	        348.04643850	        632.16657760	        884.76036900	        674.41043056	        572.23354026	        232.66444192	        359.60731626	        688.65578741	
          2.52000000	          0.00000000	          0.00000000	        303.65069670	        512.34418308	        367.68495952	          0.00000000	          0.00000000	          0.00000000	          0.00000000	          0.00000000	          0.00000000	          0.00000000	          0.00000000	          0.00000000	          0.00000000	          0.00000000	          0.00000000	          0.00000000	          0.00000000	          8.47166348	         -0.95793051	         -9.76916790	         11.94900703	        -29.52131844	         12.85259914	         62.79796982	         96.55812073	          0.00000000	          0.00000000	          0.00000000	          0.00000000	          0.00000000	          0.00000000	          0.00000000	          0.00000000	          0.00000000	        634.00980151	        351.87209292	        632.78123683	        884.75424242	        674.39437865	        572.22865765	        233.76218658	        360.44333644	        689.35598807	
          2.53000000	          0.00000000	          0.00000000	        303.56782487	        512.40497257	        367.66312928	          0.00000000	          0.00000000	          0.00000000	          0.00000000	          0.00000000	          0.00000000	          0.00000000	          0.00000000	          0.00000000	          0.00000000	          0.00000000	          0.00000000	          0.00000000	          0.00000000	          8.46492290	         -0.97848749	         -9.74633217	         12.19977283	        -29.60068703	         12.80891132	         63.04213333	         96.45374298	          0.00000000	          0.00000000	          0.00000000	          0.00000000	          0.00000000	          0.00000000	          0.00000000	          0.00000000	          0.00000000	        635.10373859	        355.67307086	        633.35546053	        884.76460544	        674.40478414	        572.20787501	        234.89200789	        361.09905580	        690.11844120	
          2.54000000	          0.00000000	          0.00000000	        303.48668028	        512.45524949	        367.65138145	          0.00000000	          0.00000000	          0.00000000	          0.00000000	          0.00000000	          0.00000000	          0.00000000	          0.00000000	          0.00000000	          0.00000000	          0.00000000	          0.00000000	          0.00000000	          0.00000000	          8.44831944	         -0.98729843	         -9.74670887	         12.54576969	        -29.67606544	         12.79055977	         63.15153885	         96.30731964	          0.00000000	          0.00000000	          0.00000000	          0.00000000	          0.00000000	          0.00000000	          0.00000000	          0.00000000	          0.00000000	        636.22666724	        359.60982333	        634.02890268	        884.76407412	        674.42107470	        572.22256504	        235.98778722	        361.92758270	        690.67340820	
          2.55000000	          0.00000000	          0.00000000	        303.41728955	        512.53713041	        367.60976117	          0.00000000	          0.00000000	          0.00000000	          0.00000000	          0.00000000	          0.00000000	          0.00000000	          0.00000000	          0.00000000	          0.00000000	          0.00000000	          0.00000000	          0.00000000	          0.00000000	          8.48377514	         -1.00941300	         -9.73703384	         12.87509441	        -29.81388855	         12.75204754	         63.30950165	         96.26174164	          0.00000000	          0.00000000	          0.00000000	          0.00000000	          0.00000000	          0.00000000	          0.00000000	          0.00000000	          0.00000000	        637.40454179	        363.40057669	        634.68297731	        884.76629840	        674.43611512	        572.22361139	        237.10207705	        362.71380032	        691.44345343	
          2.56000000	          0.00000000	          0.00000000	        303.33533982	        512.60101156	        367.59733420	          0.00000000	          0.00000000	          0.00000000	          0.00000000	          0.00000000	          0.00000000	          0.00000000	          0.00000000	          0.00000000	          0.00000000	          0.00000000	          0.00000000	          0.00000000	          0.00000000	          8.51553917	         -1.02298450	         -9.74765491	         13.18126011	        -29.91132164	         12.78347397	         63.35961533	         96.49607849	          0.00000000	          0.00000000	          0.00000000	          0.00000000	          0.00000000	          0.00000000	          0.00000000	          0.00000000	          0.00000000	        638.54968620	        367.09590399	        635.24903496	        884.73301905	        674.37516476	        572.23234850	        238.27430146	        363.86197526	        691.85028260	
          2.57000000	          0.00000000	          0.00000000	        303.24742705	        512.65620352	        367.57224886	          0.00000000	          0.00000000	          0.00000000	          0.00000000	          0.00000000	          0.00000000	          0.00000000	          0.00000000	          0.00000000	          0.00000000	          0.00000000	          0.00000000	          0.00000000	          0.00000000	          8.49775505	         -1.04311824	         -9.73048973	         13.45553017	        -29.99051666	         12.70834541	         63.63004303	         96.24753571	          0.00000000	          0.00000000	          0.00000000	          0.00000000	          0.00000000	          0.00000000	          0.00000000	          0.00000000	          0.00000000	        639.57176837	        370.65101023	        635.71732002	        884.73290514	        674.41153892	        572.21931567	        239.38006969	        364.39101290	        692.59508818	
